<?xml version="1.0" encoding="iso-8859-1"?>
<!-- Generator: Adobe Illustrator 19.0.0, SVG Export Plug-In . SVG Version: 6.00 Build 0)  -->
<svg version="1.1" id="Layer_1" xmlns="http://www.w3.org/2000/svg" xmlns:xlink="http://www.w3.org/1999/xlink" x="0px" y="0px"
	 viewBox="0 0 512 512" style="enable-background:new 0 0 512 512;" xml:space="preserve">
<g>
	<rect x="10" y="82.384" style="fill:#50A5DC;" width="492" height="347.232"/>
	<path d="M502,439.616H10c-5.523,0-10-4.478-10-10V82.384c0-5.522,4.477-10,10-10h492c5.523,0,10,4.478,10,10v347.232
		C512,435.139,507.523,439.616,502,439.616z M20,419.616h472V92.384H20V419.616z"/>
	<path style="fill:#FCE600;" d="M168.93,273.834c-99.781,0-112.247,112.247-112.247,112.247h127.983
		c0,0,4.135-53.418,25.318-104.628C198.366,276.68,184.795,273.834,168.93,273.834z"/>
	<path style="fill:#FCE600;" d="M455.318,386.081c0,0-11.396-197.046-133.402-197.046c-58.482,0-92.431,45.273-111.932,92.418
		c-21.183,51.21-25.318,104.628-25.318,104.628H455.318z"/>
	<path d="M465.301,385.504c-0.12-2.072-3.146-51.317-21.545-101.395c-25.257-68.74-67.388-105.074-121.84-105.074
		c-50.164,0-90.591,31.042-117.371,89.881c-11.042-3.371-22.977-5.083-35.615-5.083c-44.647,0-80.017,21.186-102.283,61.268
		C50.27,354.58,46.879,383.75,46.743,384.978c-0.314,2.826,0.591,5.653,2.488,7.772c1.897,2.12,4.607,3.331,7.451,3.331h127.983
		h270.653c2.752,0,5.383-1.135,7.272-3.136C464.479,390.943,465.46,388.252,465.301,385.504z M85,333.271
		c18.798-32.806,47.027-49.437,83.93-49.437c9.938,0,19.295,1.229,27.936,3.663c-4.198,11.274-7.774,22.773-10.819,34.411
		c-3.073,11.744-5.62,23.627-7.659,35.593c-1.052,6.171-1.982,12.365-2.729,18.58H68.646C72.013,361.142,77.411,346.587,85,333.271z
		 M195.845,376.081c8.994-68.639,39.629-177.046,126.071-177.046c45.868,0,80.499,30.817,102.929,91.597
		c12.57,34.061,17.646,68.592,19.514,85.449H195.845z"/>
	<g>
		<path d="M409.209,350.975c-4.711,0-8.906-3.344-9.814-8.143c-3.946-20.853-11.924-50.394-27.52-72.707
			c-3.164-4.526-2.059-10.761,2.468-13.925s10.761-2.06,13.925,2.468c17.628,25.223,26.467,57.668,30.778,80.445
			c1.027,5.427-2.54,10.658-7.966,11.685C410.452,350.917,409.826,350.975,409.209,350.975z"/>
	</g>
	<g>
		<path d="M349.312,246.464c-1.526,0-3.074-0.35-4.527-1.089c-8.44-4.294-17.84-6.472-27.941-6.472c-5.523,0-10-4.478-10-10
			s4.477-10,10-10c13.282,0,25.734,2.909,37.01,8.646c4.922,2.505,6.882,8.525,4.378,13.447
			C356.467,244.466,352.955,246.464,349.312,246.464z"/>
	</g>
	<g>
		<circle style="fill:#FCE600;" cx="112.281" cy="171.028" r="35.667"/>
		<path d="M112.281,216.695c-25.181,0-45.667-20.486-45.667-45.668c0-25.181,20.486-45.667,45.667-45.667
			s45.667,20.486,45.667,45.667C157.949,196.209,137.462,216.695,112.281,216.695z M112.281,145.36
			c-14.153,0-25.667,11.514-25.667,25.667s11.514,25.668,25.667,25.668s25.667-11.515,25.667-25.668S126.435,145.36,112.281,145.36z
			"/>
	</g>
	<path d="M449.023,141.164h-58.746c-5.523,0-10-4.478-10-10s4.477-10,10-10h58.746c5.523,0,10,4.478,10,10
		S454.546,141.164,449.023,141.164z"/>
</g>
<g>
</g>
<g>
</g>
<g>
</g>
<g>
</g>
<g>
</g>
<g>
</g>
<g>
</g>
<g>
</g>
<g>
</g>
<g>
</g>
<g>
</g>
<g>
</g>
<g>
</g>
<g>
</g>
<g>
</g>
</svg>
